# xmcd CD database file
#
# Track frame offsets:
#	150
#	28203
#	56145
#	78264
#	114406
#	149771
#	181372
#	215648
#	249683
#	288717
#
# Disc length: 4275 seconds
#
# Revision: 0
# Processed by: cddbd v1.5.2PL0 Copyright (c) Steve Scherf et al.
# Submitted via: CDex 1.70beta2
#
DISCID=a110b10a
DTITLE=Michael Cochrane - Quartet Music
DYEAR=2002
DGENRE=Jazz
TTITLE0=Tones For Bones
TTITLE1=502 Blues
TTITLE2=Orbit
TTITLE3=Simba
TTITLE4=Soul Eyes
TTITLE5=When Love Is New
TTITLE6=Step Lightly
TTITLE7=Promise
TTITLE8=The Greeting
TTITLE9=Red's Blues
EXTD=YEAR: 2002
EXTT0=
EXTT1=
EXTT2=
EXTT3=
EXTT4=
EXTT5=
EXTT6=
EXTT7=
EXTT8=
EXTT9=
PLAYORDER=
